# xmcd
#
# Track frame offsets: 
#        150
#        17425
#        36080
#        48182
#        86529
#        123925
#        159740
#
# Disc length: 2843 seconds
#
# Revision: 2
# Processed by: cddbd v1.5.2PL0 Copyright (c) Steve Scherf et al.
# Submitted via: ExactAudioCopy v0.95b4
#
DISCID=480b1907
DTITLE=Santana - The Natural  Collection Disk 2
DYEAR=1900
DGENRE=Rock
TTITLE0=As The years Go By
TTITLE1=With A Little Help From My Friends
TTITLE2=Latin Tropical (Short Version)
TTITLE3=Jam In E
TTITLE4=Travelin' Blues
TTITLE5=Jam In G Minor
TTITLE6=El Corazon Manda
EXTD=
EXTT0=
EXTT1=
EXTT2=
EXTT3=
EXTT4=
EXTT5=
EXTT6=
PLAYORDER=
